<?xml version="1.0" encoding="iso-8859-1"?>
<!-- Uploaded to: SVG Repo, www.svgrepo.com, Generator: SVG Repo Mixer Tools -->
<svg height="800px" width="800px" version="1.1" id="Layer_1" xmlns="http://www.w3.org/2000/svg" xmlns:xlink="http://www.w3.org/1999/xlink" 
	 viewBox="0 0 512 512" xml:space="preserve">
<path style="fill:#DEDEE0;" d="M465.455,0H256H46.545c-7.23,0-13.689,3.297-17.959,8.47c-1.898,2.299-3.362,4.968-4.268,7.883
	c-0.68,2.185-1.046,4.51-1.046,6.92v186.182v279.273c0,12.853,10.42,23.273,23.273,23.273H256h209.455
	c12.853,0,23.273-10.42,23.273-23.273V209.455V23.273C488.727,10.42,478.307,0,465.455,0z"/>
<path style="fill:#00E7F0;" d="M465.455,0H256H46.545C33.693,0,23.273,10.42,23.273,23.273v186.182
	c0,12.853,10.42,23.273,23.273,23.273h23.273h93.155c6.628-8.809,14.474-16.652,23.29-23.273
	c19.448-14.606,43.598-23.273,69.737-23.273s50.289,8.667,69.738,23.273c8.816,6.62,16.66,14.463,23.29,23.273h93.155h23.273
	c12.853,0,23.273-10.42,23.273-23.273V23.273C488.727,10.42,478.307,0,465.455,0z"/>
<path style="fill:#6E76E5;" d="M349.027,232.727c-6.63-8.809-14.474-16.652-23.29-23.273
	c-19.448-14.606-43.598-23.273-69.738-23.273s-50.289,8.667-69.737,23.273c-8.816,6.62-16.66,14.463-23.29,23.273
	c-14.645,19.462-23.336,43.643-23.336,69.818c0,64.163,52.199,116.364,116.364,116.364c64.163,0,116.364-52.201,116.364-116.364
	C372.364,276.37,363.672,252.189,349.027,232.727z"/>
<path style="fill:#B3D8F4;" d="M256,232.727c-38.498,0-69.818,31.32-69.818,69.818s31.32,69.818,69.818,69.818
	s69.818-31.32,69.818-69.818S294.498,232.727,256,232.727z"/>
<path style="fill:#57565C;" d="M139.636,139.636h46.545c12.853,0,23.273-10.42,23.273-23.273s-10.42-23.273-23.273-23.273h-46.545
	c-12.853,0-23.273,10.42-23.273,23.273S126.784,139.636,139.636,139.636z"/>
<path style="fill:#8CB7E8;" d="M186.182,302.545c0,38.498,31.319,69.818,69.818,69.818V232.727
	C217.501,232.727,186.182,264.048,186.182,302.545z"/>
<path style="fill:#424EDE;" d="M162.973,232.727c-14.645,19.462-23.336,43.643-23.336,69.818
	c0,64.163,52.199,116.364,116.364,116.364v-46.545c-38.499,0-69.818-31.32-69.818-69.818s31.319-69.818,69.818-69.818v-46.545
	c-26.14,0-50.289,8.667-69.737,23.273C177.447,216.075,169.601,223.918,162.973,232.727z"/>
<g>
	<path style="fill:#57565C;" d="M279.276,93.1c-6.127,0-12.131,2.482-16.46,6.811c-4.329,4.327-6.813,10.333-6.813,16.446
		c0,6.128,2.482,12.133,6.813,16.46c4.329,4.329,10.333,6.813,16.46,6.813c6.128,0,12.119-2.484,16.446-6.813
		c4.344-4.329,6.827-10.333,6.827-16.46c0-6.113-2.482-12.119-6.827-16.446C291.395,95.583,285.404,93.1,279.276,93.1z"/>
	<path style="fill:#57565C;" d="M372.367,93.085c-6.127,0-12.131,2.482-16.46,6.827c-4.329,4.327-6.813,10.333-6.813,16.462
		c0,6.113,2.482,12.117,6.813,16.446c4.329,4.329,10.333,6.813,16.46,6.813c6.128,0,12.117-2.484,16.446-6.813
		c4.344-4.329,6.827-10.333,6.827-16.446c0-6.128-2.482-12.133-6.827-16.462C384.484,95.567,378.495,93.085,372.367,93.085z"/>
</g>
<path style="fill:#D6D5D8;" d="M139.636,302.545c0-26.176,8.692-50.356,23.336-69.818H69.818H46.545
	c-12.853,0-23.273-10.42-23.273-23.273v279.273c0,12.853,10.42,23.273,23.273,23.273H256v-93.091
	C191.836,418.909,139.636,366.708,139.636,302.545z"/>
<path style="fill:#00D7DF;" d="M46.545,232.727h23.273h93.155c6.628-8.809,14.474-16.652,23.29-23.273
	c19.448-14.606,43.599-23.273,69.737-23.273V0H46.545C33.693,0,23.273,10.42,23.273,23.273v186.182
	C23.273,222.307,33.693,232.727,46.545,232.727z M139.636,93.091h46.545c12.853,0,23.273,10.42,23.273,23.273
	s-10.42,23.273-23.273,23.273h-46.545c-12.853,0-23.273-10.42-23.273-23.273S126.784,93.091,139.636,93.091z"/>
</svg>